<svg width="1155" height="200" viewBox="0 0 1155 200" fill="none" xmlns="http://www.w3.org/2000/svg">
<path d="M341.277 57.7613C340.926 62.2462 340.662 66.5553 340.487 70.6884C340.399 74.8216 340.355 77.9874 340.355 80.1859C340.355 82.1206 340.399 83.9673 340.487 85.7261C340.575 87.4849 340.662 88.9799 340.75 90.2111H337.72C336.315 82.8241 334.515 76.9761 332.319 72.6671C330.212 68.358 327.665 65.3241 324.679 63.5653C321.693 61.7186 318.181 60.7952 314.141 60.7952H311.111V136.116C311.111 139.633 311.462 142.271 312.165 144.03C312.955 145.789 314.36 146.976 316.38 147.592C318.4 148.119 321.342 148.427 325.206 148.515V151.153C322.484 151.065 318.839 150.977 314.273 150.889C309.794 150.802 305.095 150.758 300.177 150.758C295.347 150.758 290.781 150.802 286.478 150.889C282.174 150.977 278.706 151.065 276.071 151.153V148.515C280.023 148.427 283.009 148.119 285.029 147.592C287.048 146.976 288.41 145.789 289.112 144.03C289.815 142.271 290.166 139.633 290.166 136.116V60.7952H287.268C283.228 60.7952 279.716 61.7186 276.73 63.5653C273.744 65.3241 271.197 68.358 269.089 72.6671C266.982 76.8882 265.137 82.7362 263.557 90.2111H260.527C260.703 88.9799 260.79 87.4849 260.79 85.7261C260.878 83.9673 260.922 82.1206 260.922 80.1859C260.922 77.9874 260.834 74.8216 260.659 70.6884C260.571 66.5553 260.351 62.2462 260 57.7613C264.04 57.8493 268.431 57.9372 273.173 58.0251C278.003 58.1131 282.833 58.157 287.663 58.157C292.493 58.157 296.84 58.157 300.704 58.157C304.656 58.157 309.003 58.157 313.746 58.157C318.576 58.157 323.406 58.1131 328.236 58.0251C333.066 57.9372 337.413 57.8493 341.277 57.7613Z" fill="#120D03"/>
<path d="M373.829 48V93.3769C376.024 88.804 378.966 85.6382 382.655 83.8794C386.431 82.0327 390.646 81.1093 395.301 81.1093C399.077 81.1093 402.107 81.593 404.39 82.5603C406.673 83.4397 408.474 84.6709 409.791 86.2538C411.284 87.9246 412.338 90.0791 412.952 92.7173C413.655 95.3555 414.006 98.9171 414.006 103.402V138.886C414.006 142.579 414.621 145.085 415.85 146.405C417.168 147.724 419.363 148.383 422.437 148.383V151.153C420.768 151.065 418.222 150.977 414.797 150.889C411.459 150.714 408.21 150.626 405.049 150.626C401.624 150.626 398.286 150.714 395.037 150.889C391.876 150.977 389.505 151.065 387.924 151.153V148.383C390.558 148.383 392.403 147.724 393.456 146.405C394.51 145.085 395.037 142.579 395.037 138.886V97.8618C395.037 95.6633 394.818 93.7726 394.378 92.1897C393.939 90.5188 393.105 89.2437 391.876 88.3643C390.734 87.397 389.065 86.9133 386.87 86.9133C384.499 86.9133 382.303 87.5729 380.283 88.892C378.351 90.1231 376.771 91.8819 375.541 94.1683C374.4 96.4548 373.829 99.093 373.829 102.083V138.886C373.829 142.579 374.356 145.085 375.409 146.405C376.463 147.724 378.307 148.383 380.942 148.383V151.153C379.361 151.065 377.034 150.977 373.96 150.889C370.887 150.714 367.769 150.626 364.608 150.626C361.183 150.626 357.714 150.714 354.201 150.889C350.776 150.977 348.185 151.065 346.429 151.153V148.383C349.503 148.383 351.654 147.724 352.884 146.405C354.201 145.085 354.86 142.579 354.86 138.886V63.8291C354.86 59.8719 354.245 56.9699 353.015 55.1231C351.874 53.1884 349.678 52.2211 346.429 52.2211V49.451C349.239 49.7148 351.962 49.8467 354.596 49.8467C358.197 49.8467 361.622 49.7148 364.871 49.451C368.12 49.0993 371.106 48.6156 373.829 48Z" fill="#120D03"/>
<path d="M461.218 81.1093C468.946 81.1093 475.006 83.3957 479.396 87.9686C483.787 92.5415 485.983 100.016 485.983 110.393H442.644L442.381 107.887H469.385C469.473 103.578 469.209 99.6206 468.595 96.0151C467.98 92.3216 467.014 89.3756 465.697 87.1771C464.379 84.9786 462.623 83.8794 460.427 83.8794C457.354 83.8794 454.719 85.8141 452.524 89.6834C450.416 93.5528 449.143 99.9724 448.704 108.942L449.099 109.734C449.011 110.789 448.923 111.888 448.835 113.031C448.835 114.175 448.835 115.362 448.835 116.593C448.835 122.661 449.67 127.585 451.338 131.367C453.095 135.148 455.29 137.918 457.925 139.677C460.559 141.348 463.238 142.183 465.96 142.183C467.804 142.183 469.692 141.92 471.624 141.392C473.644 140.776 475.664 139.721 477.684 138.226C479.704 136.643 481.592 134.445 483.348 131.631L485.719 132.422C484.666 135.764 482.997 139.018 480.714 142.183C478.43 145.349 475.532 147.943 472.02 149.966C468.507 151.989 464.291 153 459.374 153C453.402 153 448.133 151.725 443.566 149.175C438.999 146.624 435.399 142.755 432.764 137.567C430.217 132.378 428.944 125.783 428.944 117.78C428.944 109.602 430.305 102.786 433.028 97.3342C435.838 91.8819 439.658 87.8367 444.488 85.1985C449.406 82.4724 454.983 81.1093 461.218 81.1093Z" fill="#120D03"/>
<path d="M566.378 57.7613C583.679 57.7613 596.544 61.7186 604.975 69.6332C613.406 77.4598 617.621 88.7161 617.621 103.402C617.621 112.987 615.557 121.386 611.43 128.597C607.302 135.72 601.286 141.26 593.383 145.217C585.567 149.175 576.17 151.153 565.193 151.153C563.787 151.153 561.943 151.109 559.66 151.021C557.377 150.933 555.005 150.889 552.546 150.889C550.088 150.802 547.892 150.758 545.96 150.758C542.096 150.758 538.276 150.802 534.5 150.889C530.811 150.889 527.869 150.977 525.674 151.153V148.515C528.484 148.339 530.592 147.987 531.997 147.46C533.402 146.932 534.324 145.877 534.763 144.294C535.29 142.711 535.553 140.337 535.553 137.171V71.7437C535.553 68.4899 535.29 66.1156 534.763 64.6206C534.324 63.0377 533.358 61.9824 531.865 61.4548C530.46 60.8392 528.396 60.4874 525.674 60.3995V57.7613C527.869 57.8493 530.811 57.9812 534.5 58.157C538.276 58.245 542.008 58.245 545.697 58.157C548.858 58.0691 552.415 57.9812 556.367 57.8932C560.406 57.8053 563.743 57.7613 566.378 57.7613ZM566.246 60.1357C562.207 60.1357 559.572 60.8832 558.343 62.3781C557.113 63.8731 556.498 66.907 556.498 71.4799V137.435C556.498 142.008 557.113 145.041 558.343 146.536C559.66 148.031 562.338 148.779 566.378 148.779C573.755 148.779 579.551 147.064 583.766 143.634C588.07 140.117 591.143 135.016 592.987 128.333C594.832 121.649 595.754 113.515 595.754 103.93C595.754 94.0804 594.744 85.946 592.724 79.5264C590.792 73.0188 587.674 68.1822 583.371 65.0163C579.068 61.7626 573.36 60.1357 566.246 60.1357Z" fill="#120D03"/>
<path d="M643.905 152.077C639.953 152.077 636.66 151.329 634.025 149.834C631.391 148.339 629.459 146.361 628.229 143.898C627 141.348 626.385 138.578 626.385 135.588C626.385 131.807 627.219 128.729 628.888 126.354C630.644 123.98 632.884 122.045 635.606 120.55C638.328 119.055 641.183 117.824 644.168 116.857C647.242 115.889 650.14 114.966 652.863 114.087C655.673 113.119 657.912 112.02 659.581 110.789C661.337 109.47 662.215 107.799 662.215 105.776V95.4874C662.215 93.201 661.82 91.1784 661.03 89.4196C660.327 87.5729 659.186 86.1658 657.605 85.1985C656.112 84.2312 654.136 83.7475 651.677 83.7475C649.921 83.7475 648.164 84.0113 646.408 84.539C644.651 84.9786 643.202 85.7701 642.061 86.9133C644.52 87.7927 646.408 89.1558 647.725 91.0025C649.13 92.7613 649.833 94.7839 649.833 97.0704C649.833 100.06 648.779 102.435 646.671 104.193C644.651 105.952 642.236 106.832 639.426 106.832C636.265 106.832 633.85 105.864 632.181 103.93C630.6 101.907 629.81 99.4887 629.81 96.6746C629.81 94.1244 630.425 92.0138 631.654 90.343C632.971 88.6721 634.772 87.0892 637.055 85.5942C639.514 84.1872 642.456 83.0879 645.881 82.2965C649.394 81.505 653.17 81.1093 657.21 81.1093C661.249 81.1093 664.894 81.549 668.143 82.4284C671.393 83.2199 674.115 84.7148 676.31 86.9133C678.33 88.9359 679.648 91.4422 680.262 94.4322C680.877 97.3342 681.184 101.028 681.184 105.513V141.392C681.184 143.59 681.404 145.129 681.843 146.009C682.282 146.8 683.029 147.196 684.082 147.196C684.873 147.196 685.619 146.976 686.322 146.536C687.112 146.097 687.947 145.569 688.825 144.954L690.142 147.196C688.298 148.779 686.146 150.01 683.687 150.889C681.316 151.681 678.638 152.077 675.652 152.077C672.402 152.077 669.812 151.637 667.88 150.758C665.948 149.79 664.543 148.515 663.664 146.932C662.874 145.349 662.479 143.503 662.479 141.392C660.371 144.734 657.824 147.372 654.839 149.307C651.853 151.153 648.208 152.077 643.905 152.077ZM653.258 143.634C655.014 143.634 656.595 143.239 658 142.447C659.493 141.568 660.898 140.161 662.215 138.226V111.185C661.425 112.504 660.327 113.691 658.922 114.746C657.517 115.802 656.024 116.901 654.443 118.044C652.863 119.099 651.326 120.286 649.833 121.606C648.428 122.925 647.286 124.552 646.408 126.486C645.53 128.421 645.091 130.751 645.091 133.477C645.091 136.907 645.837 139.457 647.33 141.128C648.823 142.799 650.799 143.634 653.258 143.634Z" fill="#120D03"/>
<path d="M720.648 61.3229V82.956H736.192V85.5942H720.648V138.886C720.648 141.524 721.131 143.415 722.097 144.558C723.063 145.613 724.512 146.141 726.444 146.141C728.025 146.141 729.605 145.569 731.186 144.426C732.767 143.195 734.172 141.128 735.401 138.226L737.641 139.413C736.236 143.371 734.084 146.624 731.186 149.175C728.376 151.725 724.512 153 719.594 153C716.696 153 714.149 152.604 711.954 151.813C709.758 151.109 707.914 150.01 706.421 148.515C704.489 146.58 703.216 144.206 702.601 141.392C701.986 138.49 701.679 134.753 701.679 130.18V85.5942H690.613V82.956H701.679V65.544C705.367 65.544 708.748 65.2362 711.822 64.6206C714.983 63.9171 717.925 62.8178 720.648 61.3229Z" fill="#120D03"/>
<path d="M773.689 81.1093C781.418 81.1093 787.477 83.3957 791.868 87.9686C796.259 92.5415 798.455 100.016 798.455 110.393H755.116L754.852 107.887H781.857C781.944 103.578 781.681 99.6206 781.066 96.0151C780.452 92.3216 779.486 89.3756 778.168 87.1771C776.851 84.9786 775.095 83.8794 772.899 83.8794C769.825 83.8794 767.191 85.8141 764.995 89.6834C762.888 93.5528 761.614 99.9724 761.175 108.942L761.57 109.734C761.482 110.789 761.395 111.888 761.307 113.031C761.307 114.175 761.307 115.362 761.307 116.593C761.307 122.661 762.141 127.585 763.81 131.367C765.566 135.148 767.762 137.918 770.396 139.677C773.031 141.348 775.709 142.183 778.432 142.183C780.276 142.183 782.164 141.92 784.096 141.392C786.116 140.776 788.136 139.721 790.156 138.226C792.175 136.643 794.064 134.445 795.82 131.631L798.191 132.422C797.137 135.764 795.469 139.018 793.185 142.183C790.902 145.349 788.004 147.943 784.491 149.966C780.978 151.989 776.763 153 771.845 153C765.873 153 760.604 151.725 756.038 149.175C751.471 146.624 747.87 142.755 745.236 137.567C742.689 132.378 741.416 125.783 741.416 117.78C741.416 109.602 742.777 102.786 745.499 97.3342C748.31 91.8819 752.13 87.8367 756.96 85.1985C761.878 82.4724 767.454 81.1093 773.689 81.1093Z" fill="#120D03"/>
<path d="M885.963 55.9146C891.759 55.9146 896.501 56.794 900.19 58.5528C903.966 60.2236 907.303 62.2023 910.201 64.4887C911.958 65.8078 913.275 65.9837 914.153 65.0163C915.119 63.9611 915.778 61.5427 916.129 57.7613H919.159C918.983 61.191 918.852 65.3681 918.764 70.2927C918.676 75.1294 918.632 81.593 918.632 89.6834H915.602C915.163 85.6382 914.592 82.2085 913.89 79.3945C913.187 76.4925 912.221 73.9422 910.992 71.7437C909.762 69.5452 908.006 67.5666 905.723 65.8078C903.527 63.6093 900.98 61.9824 898.082 60.9271C895.184 59.8719 892.154 59.3442 888.993 59.3442C884.251 59.3442 880.211 60.6193 876.874 63.1696C873.537 65.6319 870.814 69.0176 868.707 73.3266C866.687 77.6357 865.194 82.5163 864.228 87.9686C863.262 93.3329 862.779 98.9171 862.779 104.721C862.779 110.613 863.262 116.285 864.228 121.737C865.282 127.102 866.862 131.894 868.97 136.116C871.165 140.337 873.976 143.678 877.401 146.141C880.826 148.603 884.865 149.834 889.52 149.834C892.418 149.834 895.316 149.307 898.214 148.251C901.2 147.108 903.747 145.481 905.854 143.371C909.279 140.732 911.606 137.479 912.836 133.609C914.065 129.652 914.987 124.42 915.602 117.912H918.632C918.632 126.266 918.676 133.038 918.764 138.226C918.852 143.327 918.983 147.636 919.159 151.153H916.129C915.778 147.372 915.163 144.997 914.285 144.03C913.495 143.063 912.133 143.195 910.201 144.426C906.952 146.712 903.483 148.735 899.795 150.494C896.194 152.165 891.54 153 885.831 153C876.522 153 868.355 151.109 861.33 147.328C854.392 143.546 848.991 138.094 845.127 130.971C841.263 123.848 839.331 115.274 839.331 105.249C839.331 95.3995 841.307 86.7814 845.259 79.3945C849.298 72.0075 854.787 66.2475 861.725 62.1143C868.75 57.9812 876.83 55.9146 885.963 55.9146Z" fill="#120D03"/>
<path d="M975.022 81.1093C977.833 81.1093 980.116 81.7249 981.872 82.956C983.629 84.0993 984.902 85.5942 985.693 87.441C986.571 89.2877 987.01 91.2224 987.01 93.245C987.01 96.4987 986.044 99.1809 984.112 101.291C982.268 103.314 979.809 104.325 976.735 104.325C973.661 104.325 971.246 103.578 969.49 102.083C967.821 100.5 966.987 98.4334 966.987 95.8832C966.987 93.4209 967.514 91.3982 968.568 89.8153C969.709 88.1445 971.115 86.7374 972.783 85.5942C971.554 85.2425 970.324 85.2864 969.095 85.7261C967.426 85.99 965.845 86.6935 964.352 87.8367C962.859 88.892 961.586 90.255 960.532 91.9259C959.478 93.5088 958.644 95.2676 958.029 97.2023C957.415 99.049 957.107 100.852 957.107 102.611V137.567C957.107 141.788 958.117 144.646 960.137 146.141C962.245 147.636 965.362 148.383 969.49 148.383V151.153C967.47 151.065 964.528 150.977 960.664 150.889C956.8 150.714 952.76 150.626 948.545 150.626C945.032 150.626 941.475 150.714 937.875 150.889C934.274 150.977 931.552 151.065 929.708 151.153V148.383C932.781 148.383 934.933 147.724 936.162 146.405C937.48 145.085 938.138 142.579 938.138 138.886V97.3342C938.138 93.3769 937.524 90.4749 936.294 88.6281C935.152 86.6935 932.957 85.7261 929.708 85.7261V82.956C932.518 83.2199 935.24 83.3518 937.875 83.3518C941.563 83.3518 944.988 83.2199 948.15 82.956C951.399 82.6043 954.385 82.1206 957.107 81.505V93.7726C958.161 91.3982 959.566 89.2437 961.323 87.309C963.079 85.3744 965.099 83.8794 967.382 82.8241C969.665 81.6809 972.212 81.1093 975.022 81.1093Z" fill="#120D03"/>
<path d="M1023.38 81.1093C1031.11 81.1093 1037.17 83.3957 1041.56 87.9686C1045.95 92.5415 1048.15 100.016 1048.15 110.393H1004.81L1004.55 107.887H1031.55C1031.64 103.578 1031.38 99.6206 1030.76 96.0151C1030.15 92.3216 1029.18 89.3756 1027.86 87.1771C1026.55 84.9786 1024.79 83.8794 1022.59 83.8794C1019.52 83.8794 1016.89 85.8141 1014.69 89.6834C1012.58 93.5528 1011.31 99.9724 1010.87 108.942L1011.26 109.734C1011.18 110.789 1011.09 111.888 1011 113.031C1011 114.175 1011 115.362 1011 116.593C1011 122.661 1011.84 127.585 1013.5 131.367C1015.26 135.148 1017.46 137.918 1020.09 139.677C1022.73 141.348 1025.4 142.183 1028.13 142.183C1029.97 142.183 1031.86 141.92 1033.79 141.392C1035.81 140.776 1037.83 139.721 1039.85 138.226C1041.87 136.643 1043.76 134.445 1045.51 131.631L1047.89 132.422C1046.83 135.764 1045.16 139.018 1042.88 142.183C1040.6 145.349 1037.7 147.943 1034.19 149.966C1030.67 151.989 1026.46 153 1021.54 153C1015.57 153 1010.3 151.725 1005.73 149.175C1001.17 146.624 997.565 142.755 994.93 137.567C992.383 132.378 991.11 125.783 991.11 117.78C991.11 109.602 992.471 102.786 995.194 97.3342C998.004 91.8819 1001.82 87.8367 1006.65 85.1985C1011.57 82.4724 1017.15 81.1093 1023.38 81.1093Z" fill="#120D03"/>
<path d="M1086.24 82.956V85.7261C1084.31 85.7261 1082.59 85.858 1081.1 86.1219C1079.69 86.2977 1078.73 86.9133 1078.2 87.9686C1077.76 89.0239 1077.94 90.7387 1078.73 93.1131L1091.24 132.29L1089.53 134.137L1104.94 82.8241L1107.58 84.0113L1087.42 151.417C1086.02 151.329 1084.61 151.285 1083.21 151.285C1081.8 151.285 1080.35 151.329 1078.86 151.417L1058.05 93.1131C1056.82 89.5955 1055.46 87.4849 1053.96 86.7814C1052.56 86.0779 1051.37 85.7261 1050.41 85.7261V82.956C1053.22 83.2199 1056.12 83.4397 1059.1 83.6156C1062.17 83.7035 1065.51 83.7475 1069.11 83.7475C1071.83 83.7475 1074.69 83.6595 1077.67 83.4837C1080.75 83.3078 1083.6 83.1319 1086.24 82.956ZM1155 82.956V85.5942C1153.33 86.0339 1151.75 87.0452 1150.26 88.6281C1148.76 90.2111 1147.36 92.9812 1146.04 96.9384L1128.52 151.417C1127.12 151.329 1125.67 151.285 1124.18 151.285C1122.77 151.285 1121.37 151.329 1119.96 151.417L1101.39 100.632L1104.94 82.8241C1106.52 82.9121 1108.1 82.956 1109.69 82.956C1111.35 82.8681 1112.98 82.8241 1114.56 82.8241L1132.61 136.116L1131.16 134.665L1139.98 106.7C1141.48 101.863 1142.05 97.9498 1141.7 94.9598C1141.34 91.9699 1140.29 89.7274 1138.53 88.2324C1136.78 86.7374 1134.41 85.858 1131.42 85.5942V82.956C1132.83 83.044 1134.32 83.1319 1135.9 83.2199C1137.57 83.2199 1139.19 83.2638 1140.77 83.3518C1142.44 83.3518 1143.85 83.3518 1144.99 83.3518C1146.74 83.3518 1148.55 83.3078 1150.39 83.2199C1152.32 83.1319 1153.86 83.044 1155 82.956Z" fill="#120D03"/>
<path fill-rule="evenodd" clip-rule="evenodd" d="M100 0C44.7715 0 0 44.7715 0 100C0 155.228 44.7715 200 100 200C155.228 200 200 155.228 200 100C200 44.7715 155.228 0 100 0ZM132.791 116.8C132.191 114.467 131.891 112.033 131.891 109.5C131.891 107.167 132.124 104.9 132.591 102.7C133.057 100.433 133.824 98.4333 134.891 96.7C136.024 94.9 137.424 93.4667 139.091 92.4C140.824 91.3333 142.957 90.8 145.491 90.8C147.424 90.8 149.191 91.1333 150.791 91.8C152.391 92.4 153.191 93.3 153.191 94.5C153.191 95.0333 152.924 95.6 152.391 96.2C151.924 96.8 151.691 97.5667 151.691 98.5C151.691 99.9 152.124 100.967 152.991 101.7C153.924 102.433 155.091 102.8 156.491 102.8C158.224 102.8 159.491 102.267 160.291 101.2C161.091 100.133 161.491 99 161.491 97.8C161.491 96.1333 161.057 94.6333 160.191 93.3C159.324 91.9667 158.157 90.8667 156.691 90C155.291 89.0667 153.657 88.3667 151.791 87.9C149.991 87.4333 148.124 87.2 146.191 87.2C142.191 87.2 138.657 87.8333 135.591 89.1C132.524 90.3 129.924 91.9667 127.791 94.1C125.724 96.1667 124.124 98.6667 122.991 101.6C121.924 104.467 121.391 107.533 121.391 110.8C121.391 115.4 122.057 119.267 123.391 122.4C124.724 125.467 126.457 127.933 128.591 129.8C130.791 131.667 133.224 133 135.891 133.8C138.557 134.6 141.224 135 143.891 135C147.891 135 151.357 134.5 154.291 133.5C157.224 132.433 159.791 130.433 161.991 127.5C162.191 127.233 162.224 126.933 162.091 126.6C162.024 126.267 161.857 126 161.591 125.8C161.324 125.533 161.024 125.367 160.691 125.3C160.357 125.167 160.057 125.233 159.791 125.5C158.257 126.833 156.357 127.7 154.091 128.1C151.891 128.433 149.624 128.6 147.291 128.6C144.557 128.6 142.224 128.1 140.291 127.1C138.357 126.033 136.757 124.633 135.491 122.9C134.291 121.1 133.391 119.067 132.791 116.8ZM111.31 116.6C111.31 119.333 111.343 121.567 111.41 123.3C111.543 124.967 111.843 126.3 112.31 127.3C112.843 128.233 113.61 128.9 114.61 129.3C115.61 129.633 117.01 129.8 118.81 129.8C119.077 129.8 119.277 129.967 119.41 130.3C119.61 130.567 119.71 130.9 119.71 131.3C119.71 131.633 119.643 131.967 119.51 132.3C119.377 132.633 119.143 132.8 118.81 132.8C118.277 132.8 117.81 132.833 117.41 132.9C117.077 132.9 116.71 132.933 116.31 133C115.977 133 115.577 133.033 115.11 133.1C114.71 133.167 114.177 133.233 113.51 133.3C112.977 133.367 112.243 133.5 111.31 133.7C110.377 133.9 109.41 134.1 108.41 134.3C107.41 134.5 106.477 134.667 105.61 134.8C104.743 134.933 104.177 135 103.91 135C103.377 135 102.943 134.533 102.61 133.6C102.277 132.667 102.11 131.367 102.11 129.7C102.11 129.367 102.01 129.233 101.81 129.3C101.677 129.367 101.543 129.467 101.41 129.6C99.3435 131.467 97.3435 132.833 95.4102 133.7C93.4768 134.567 91.1102 135 88.3102 135C85.3768 135 82.7102 134.5 80.3102 133.5C77.9768 132.433 75.9768 130.967 74.3102 129.1C72.7102 127.167 71.4435 124.833 70.5102 122.1C69.6435 119.367 69.2102 116.3 69.2102 112.9C69.2102 108.433 69.9102 104.6 71.3102 101.4C72.7102 98.1333 74.5435 95.4667 76.8102 93.4C79.0768 91.2667 81.6102 89.7 84.4102 88.7C87.2768 87.7 90.1102 87.2 92.9102 87.2C94.2435 87.2 95.7102 87.3667 97.3102 87.7C98.9102 87.9667 100.443 88.4667 101.91 89.2V83.1C101.91 80.2333 101.843 77.9667 101.71 76.3C101.577 74.5667 101.21 73.2333 100.61 72.3C100.077 71.3667 99.2102 70.7333 98.0102 70.4C96.8768 70.0667 95.3102 69.8 93.3102 69.6C93.0435 69.6 92.8102 69.4333 92.6102 69.1C92.4768 68.7667 92.4102 68.4333 92.4102 68.1C92.4102 67.7667 92.4768 67.4333 92.6102 67.1C92.7435 66.7667 92.9768 66.6 93.3102 66.6C94.4435 66.5333 95.6768 66.4667 97.0102 66.4C98.3435 66.2667 99.7102 66.1333 101.11 66C102.51 65.8667 103.877 65.6667 105.21 65.4C106.543 65.1333 107.81 64.8333 109.01 64.5C109.877 64.2333 110.443 64.3 110.71 64.7C111.043 65.0333 111.243 65.4 111.31 65.8V116.6ZM97.8102 92.8C99.2768 93.5333 100.643 94.7 101.91 96.3V124.1C100.643 125.633 99.0768 126.9 97.2102 127.9C95.4102 128.833 93.1102 129.3 90.3102 129.3C88.5768 129.3 87.0435 128.8 85.7102 127.8C84.4435 126.733 83.3435 125.367 82.4102 123.7C81.5435 121.967 80.8768 120.033 80.4102 117.9C79.9435 115.7 79.7102 113.467 79.7102 111.2C79.7102 107.333 79.9768 104.133 80.5102 101.6C81.1102 99.0667 81.9435 97.0667 83.0102 95.6C84.1435 94.1333 85.5102 93.1 87.1102 92.5C88.7102 91.9 90.5102 91.6 92.5102 91.6C94.5768 91.6 96.3435 92 97.8102 92.8ZM54 126.9C53.2 125.1 52.8 122.333 52.8 118.6V96.3C52.8 94.8333 52.8333 94 52.9 93.8C52.9667 93.5333 53.2333 93.4 53.7 93.4H64.4C64.9333 93.4 65.2667 93.1333 65.4 92.6C65.6 92 65.7 91.5 65.7 91.1C65.7 90.7 65.6333 90.2333 65.5 89.7C65.3667 89.1667 65.0667 88.9 64.6 88.9H54.2C53.4667 88.9 53.0333 88.8333 52.9 88.7C52.8333 88.5 52.8 87.8667 52.8 86.8V78.2C52.8 77.9333 52.5667 77.7333 52.1 77.6C51.7 77.4 51.2333 77.3 50.7 77.3C50.1667 77.3 49.6667 77.4 49.2 77.6C48.7333 77.8 48.4667 78.1 48.4 78.5C48.0667 80.7 47.6333 82.5 47.1 83.9C46.6333 85.2333 45.9667 86.3 45.1 87.1C44.3 87.9 43.3 88.5 42.1 88.9C40.9 89.2333 39.4667 89.4667 37.8 89.6C37.5333 89.6 37.3333 89.8 37.2 90.2C37.0667 90.6 37 91.0333 37 91.5C37.0667 91.9667 37.1667 92.4 37.3 92.8C37.4333 93.2 37.6 93.4 37.8 93.4C39.2 93.4 40.2667 93.4333 41 93.5C41.8 93.5 42.3667 93.6 42.7 93.8C43.0333 94 43.2333 94.3333 43.3 94.8C43.3667 95.2667 43.4 95.9 43.4 96.7V122.4C43.4 126.733 44.3333 129.933 46.2 132C48.0667 134 51.2667 135 55.8 135C58.5333 135 60.9 134.567 62.9 133.7C64.9667 132.833 66.6333 131.367 67.9 129.3C68.0333 129.1 68.0333 128.867 67.9 128.6C67.8333 128.333 67.7 128.1 67.5 127.9C67.3 127.633 67.0667 127.467 66.8 127.4C66.5333 127.267 66.3 127.267 66.1 127.4C65.3667 127.933 64.3 128.433 62.9 128.9C61.5667 129.367 60.1333 129.6 58.6 129.6C56.4 129.6 54.8667 128.7 54 126.9Z" fill="#AC7121"/>
</svg>
